<?xml version="1.0" encoding="UTF-8" standalone="no"?>
<!-- Created with Inkscape (http://www.inkscape.org/) -->

<svg
   width="600px"
   height="200px"
   viewBox="0 0 76 30"
   id="svg1"
   xmlns="http://www.w3.org/2000/svg"
   ><defs
     id="defs1" /><image
     width="388"
     height="64"
     preserveAspectRatio="none"
     style="display:none;image-rendering:optimizeQuality"
     id="image1"
     x="-0.2645835"
     y="3.5520998e-08" /><g
     id="layer1"
     transform="translate(-10.715625,-84.26979)"><path
       id="path1"
       style="display:inline;fill:#0f0f0f;stroke:none"
       d="m 36.115625,84.269792 c 0,2.756316 -0.548999,5.254812 -0.63562,7.938533 -0.03826,1.185296 -0.493167,2.441609 0.63562,3.173967 v 0.264583 l -1.5875,-0.264583 -0.264583,0.264583 v 0.529167 l 0.79375,0.79375 h -1.322917 v -2.910417 l -1.852083,0.264583 0.264583,1.852084 c -0.830045,-0.130794 -1.058233,-0.0095 -1.322917,0.79375 l -1.5875,0.264583 0.264584,0.79375 -0.79375,0.264583 -1.058334,-0.79375 v -2.38125 h -1.058333 l 0.264583,1.058334 -0.264583,0.264583 -0.79375,-0.264583 -0.264583,0.264583 0.264583,0.79375 -1.322917,0.264583 v -1.5875 l -2.116666,0.264584 C 21.75871,95.210003 21.247477,95.190663 20.240625,95.646875 l 0.529167,1.058333 -0.79375,0.264584 -0.79375,-3.96875 h -1.058334 v 2.38125 c -1.292847,0.434766 -0.754667,1.396622 -0.264583,2.38125 l -3.96875,-1.058334 h 1.5875 l -2.38125,-2.645833 -0.529167,3.704167 -0.79375,-0.264584 -1.058333,1.852084 c 3.55988,-0.479759 6.28378,-1.273715 9.789583,0.230993 2.157038,0.925815 4.832023,3.901475 7.14375,4.014745 1.750299,0.0858 4.515061,-2.65395 6.085417,-3.48093 3.335786,-1.756683 7.092386,-1.853357 10.583333,-0.58084 6.675901,2.4335 11.023814,9.86043 18.25625,10.92853 0.212584,-4.87578 3.93812,-8.93694 8.995834,-8.59482 2.203201,0.14904 4.020422,1.57018 6.085416,1.80919 2.049293,0.23718 2.884191,-1.5058 5.262728,-0.28991 1.797718,0.91899 2.367192,3.89418 4.262272,4.95887 l -1.595251,-3.24734 v -0.26459 -0.26458 l 1.066085,-1.51515 c 0.658447,-0.65319 0.136885,-2.59383 -0.529167,-3.175002 v -5.291666 c -1.987872,-0.308218 -1.32122,1.035274 -2.645833,1.852083 l 0.79375,1.058333 v 0.264584 l -2.38125,0.529166 -0.529167,1.058334 c -0.0079,-2.30206 -1.389903,-4.206971 -3.704167,-2.645834 v -1.5875 h -0.79375 l 0.264584,-10.054166 c -1.444711,0.479561 -1.345272,2.940609 -1.058334,4.233333 -0.914705,0.196007 -0.914693,0.862328 0,1.058333 v 1.322917 c -0.914673,0.494671 -1.222628,1.854675 0,2.116667 v 1.058333 c -1.171763,0.251093 -0.878588,1.376927 0,1.852083 l -1.5875,0.529167 v -1.322917 h -1.058333 v -0.79375 l -2.910417,-0.264583 v 1.322917 h -1.322916 l 0.264583,-1.5875 -0.264583,-0.264584 h -3.175 l 0.264583,-1.058333 h -2.116667 v 2.645833 l -0.79375,-0.264583 -0.264583,1.058333 h -1.058333 l 0.79375,1.852084 v 0.264583 l -2.910417,-0.264583 0.79375,-0.529167 v -1.852083 h -0.79375 v -1.058334 c -1.295565,0.430047 -1.030864,1.731217 -1.058333,2.910417 l -1.058334,0.264583 -0.529166,-2.116666 v -0.264584 c 0.766027,-1.184343 -0.153665,-1.877423 -1.322917,-2.116666 0,1.532254 -0.406678,3.334664 1.058333,4.233333 l -0.264583,0.79375 -1.852083,-0.529167 v 0.79375 h -0.264584 l -0.79375,-0.264583 -1.058333,0.79375 c -0.06736,-0.872506 -0.128302,-1.340275 -1.058333,-1.322917 l -0.529167,-1.322916 v -0.264584 -0.264583 l 0.264583,-1.852083 h -0.529166 l -0.264584,1.058333 -0.79375,-0.264583 0.264584,1.322916 v 0.264584 l -1.322917,0.79375 v 3.174998 l -1.058333,-1.852082 -1.5875,0.529167 0.264583,-4.233333 -2.645833,-0.264584 0.264583,-6.085416 c 0.997157,-0.708181 0.582462,-1.617755 0.264583,-2.645834 h -1.058333 c -0.607001,3.256023 -0.582541,8.671806 -2.910417,11.1125 0.443783,-1.617383 -0.173938,-2.248417 -1.5875,-2.910416 l 1.058334,-0.529167 v -0.529167 l -1.852084,-0.264583 -0.79375,-8.995833 z m 18.785417,14.022916 v -1.058333 l -1.322917,1.058333 z M 21.828125,87.444792 20.769792,87.709375 v 0.529167 l 0.264583,0.264583 h 0.529167 z m 47.625,3.175 -1.058333,0.264583 v 0.264583 l 1.058333,0.264584 z m 13.49375,1.322916 v 1.058334 h 0.79375 v -1.058334 z m -61.383333,0.529167 -0.264584,0.264583 v 0.529167 l 1.058334,0.264583 -0.264584,-1.058333 z m 23.8125,0.264583 v 1.058334 l 1.058333,-0.264584 v -0.529166 z m 23.01875,0 v 1.058334 l 1.058333,-0.264584 v -0.529166 z m -44.979167,1.5875 -0.264583,0.264584 v 0.529166 l 1.058333,0.264584 -0.264583,-1.058334 z m 58.208333,0.529167 -0.264583,1.058333 h 1.058333 l -0.264583,-1.058333 z m -14.552083,0.529167 v 0.264583 l -0.79375,0.264583 z m -42.8625,1.5875 v 0.264583 h -0.79375 z m -3.175,0.79375 h 0.529167 v 0.529166 h -0.529167 z m 56.885417,0 h 0.529166 v 0.529166 h -0.529166 z m -2.38125,0.529166 v 0.79375 l -0.79375,-0.264583 z m 9.789583,0 h 0.529167 v 0.529167 z m -70.692843,0.943095 c -1.731934,0.0815 -3.329633,0.642017 -3.39049,2.496487 l 3.439583,-0.52917 v 8.73125 h 1.852083 v -8.73125 c 4.33363,0.37836 3.439584,4.05204 3.439584,7.40834 2.491433,-0.59942 1.852083,-3.24596 1.852083,-5.29167 8.26465,4.41694 14.132015,13.43151 24.341667,7.74372 1.464082,-0.81564 3.09384,-1.78637 3.96875,-3.2458 -1.763135,-0.80587 -2.963257,0.50544 -4.497917,1.32291 0,-1.88362 0.707288,-4.72778 -1.5875,-5.29166 0,3.48842 0.704596,7.02341 -3.704167,7.40833 v -8.99583 c -3.10275,0.10188 -1.852083,6.63798 -1.852083,8.99583 -4.378064,-0.38465 -3.439583,-4.32576 -3.439583,-7.67292 -2.32287,0.93011 -1.368796,3.52631 -1.852084,5.55625 -5.19158,-2.95794 -9.346445,-8.80697 -15.610416,-9.709997 -0.832884,-0.120069 -1.920349,-0.243719 -2.95951,-0.19482 z m 25.031031,0.211874 c -0.310593,-0.01169 -0.623301,-0.01135 -0.938444,0.0021 -1.680764,0.07142 -3.427867,0.510017 -5.258077,1.425233 -1.702163,0.8512 -3.905529,2.01403 -4.7625,3.76773 1.989521,0.93525 3.348448,-0.66142 5.027083,-1.62109 2.347034,-1.34179 4.940899,-2.26442 7.672917,-1.68155 6.584539,1.4048 10.940356,7.92699 16.933333,10.62829 3.095963,1.3955 6.208112,0.3992 9.260417,1.34617 1.067232,0.33111 2.743364,1.8706 3.884517,1.45934 1.798081,-0.648 -0.764076,-1.88847 -1.503267,-1.92908 1.672419,-1.41325 2.919427,-0.70294 4.913912,0.22789 0.436529,0.20373 1.025383,1.00859 1.518253,1.45211 0.428877,0.38594 0.907547,0.49091 1.334286,0.16072 1.169549,-0.90493 -1.287522,-1.98892 -1.027328,-2.25775 0.260195,-0.26883 1.344307,0.48448 1.663465,0.68161 0.319159,0.19713 1.064865,0.22187 1.189591,-0.30127 0.124727,-0.52314 -0.888835,-1.09347 -0.888835,-1.09347 1.689408,-2.13122 6.240089,-0.48166 7.436756,-1.25109 1.196667,-0.76943 -0.901323,-3.13072 -1.453142,-3.74602 -0.700913,-0.78155 -1.459294,-0.91725 -1.586983,-1.80764 -0.0859,-0.59895 -0.02365,-0.59439 -0.219625,-0.83665 -0.353725,-0.43725 -0.528302,0.54444 -0.784965,0.47078 -0.751841,-0.21579 -0.939847,-1.64088 -1.581298,-1.04593 -0.870041,0.80696 -1.80606,1.02292 -2.841171,0.9157 -3.811355,-0.39481 -6.20288,-2.89566 -10.31875,-1.12551 -2.012615,0.86558 -3.271562,2.71842 -3.839042,4.79402 -0.326268,1.19336 -0.218301,3.26922 -1.982825,3.01946 -3.299096,-0.46698 -6.496974,-3.35786 -8.994799,-5.348 -4.035043,-3.2149 -8.194591,-6.13069 -12.853479,-6.30607 z m 37.459729,0.167948 h 0.529166 v 0.793745 h -0.529166 z m -1.5875,0.529165 v 0.26458 h -0.79375 z m -18.520834,3.44114 v 0.79375 h -0.264583 z m 27.244332,0.19223 h 0.529167 v 0.52917 z m -22.481832,0.60152 h 0.529167 v 0.79375 h -0.529167 z m -36.402429,2.97242 c -2.212894,-0.0867 -4.416791,2.32237 -6.460071,3.09491 -2.868604,1.08458 -4.849915,0.23875 -7.672916,-0.24702 0.08024,2.45034 2.442722,2.64532 4.497916,2.64532 3.393127,0 9.011837,-2.07524 10.583334,-5.29115 -0.316065,-0.12632 -0.632135,-0.18967 -0.948263,-0.20206 z" /></g></svg>
